<svg width="334" height="38" viewBox="0 0 334 38" fill="none" xmlns="http://www.w3.org/2000/svg">
<path d="M0 0H334V31C334 34.866 330.866 38 327 38H6.99999C3.134 38 0 34.866 0 31V0Z" fill="#7587D9"/>
<path d="M107.57 21.825C107.71 21.925 107.945 22.035 108.275 22.155C108.605 22.275 108.985 22.335 109.415 22.335C109.835 22.335 110.17 22.265 110.42 22.125C110.67 21.975 110.86 21.75 110.99 21.45C111.12 21.15 111.205 20.78 111.245 20.34C111.285 19.89 111.305 19.365 111.305 18.765V13.35H113.375V18.765C113.375 19.575 113.33 20.315 113.24 20.985C113.16 21.645 112.98 22.21 112.7 22.68C112.43 23.15 112.035 23.515 111.515 23.775C110.995 24.035 110.295 24.165 109.415 24.165C108.515 24.165 107.745 23.945 107.105 23.505L107.57 21.825ZM118.796 24.15C118.156 24.15 117.581 24.04 117.071 23.82C116.561 23.6 116.126 23.305 115.766 22.935C115.416 22.555 115.146 22.12 114.956 21.63C114.766 21.14 114.671 20.625 114.671 20.085C114.671 19.535 114.766 19.015 114.956 18.525C115.146 18.035 115.416 17.605 115.766 17.235C116.126 16.855 116.561 16.555 117.071 16.335C117.581 16.115 118.156 16.005 118.796 16.005C119.436 16.005 120.006 16.115 120.506 16.335C121.016 16.555 121.446 16.855 121.796 17.235C122.156 17.605 122.431 18.035 122.621 18.525C122.811 19.015 122.906 19.535 122.906 20.085C122.906 20.625 122.811 21.14 122.621 21.63C122.431 22.12 122.161 22.555 121.811 22.935C121.461 23.305 121.031 23.6 120.521 23.82C120.011 24.04 119.436 24.15 118.796 24.15ZM116.741 20.085C116.741 20.435 116.791 20.755 116.891 21.045C117.001 21.325 117.146 21.57 117.326 21.78C117.516 21.99 117.736 22.155 117.986 22.275C118.236 22.385 118.506 22.44 118.796 22.44C119.086 22.44 119.356 22.385 119.606 22.275C119.856 22.155 120.071 21.99 120.251 21.78C120.441 21.57 120.586 21.32 120.686 21.03C120.796 20.74 120.851 20.42 120.851 20.07C120.851 19.73 120.796 19.415 120.686 19.125C120.586 18.835 120.441 18.585 120.251 18.375C120.071 18.165 119.856 18.005 119.606 17.895C119.356 17.775 119.086 17.715 118.796 17.715C118.506 17.715 118.236 17.775 117.986 17.895C117.736 18.015 117.516 18.18 117.326 18.39C117.146 18.6 117.001 18.85 116.891 19.14C116.791 19.43 116.741 19.745 116.741 20.085ZM124.263 24V16.14H126.273V24H124.263ZM124.263 15.045V13.05H126.273V15.045H124.263ZM135.391 24H133.381V19.59C133.381 18.96 133.271 18.5 133.051 18.21C132.831 17.92 132.526 17.775 132.136 17.775C131.936 17.775 131.731 17.815 131.521 17.895C131.311 17.975 131.111 18.09 130.921 18.24C130.741 18.38 130.576 18.55 130.426 18.75C130.276 18.95 130.166 19.17 130.096 19.41V24H128.086V16.14H129.901V17.595C130.191 17.095 130.611 16.705 131.161 16.425C131.711 16.145 132.331 16.005 133.021 16.005C133.511 16.005 133.911 16.095 134.221 16.275C134.531 16.455 134.771 16.69 134.941 16.98C135.111 17.27 135.226 17.6 135.286 17.97C135.356 18.34 135.391 18.715 135.391 19.095V24ZM140.292 18.6C140.292 17.95 140.407 17.31 140.637 16.68C140.877 16.04 141.222 15.47 141.672 14.97C142.122 14.47 142.672 14.065 143.322 13.755C143.972 13.445 144.712 13.29 145.542 13.29C146.522 13.29 147.367 13.505 148.077 13.935C148.797 14.365 149.332 14.925 149.682 15.615L148.092 16.71C147.952 16.41 147.782 16.16 147.582 15.96C147.382 15.75 147.167 15.585 146.937 15.465C146.707 15.345 146.467 15.26 146.217 15.21C145.967 15.15 145.722 15.12 145.482 15.12C144.962 15.12 144.507 15.225 144.117 15.435C143.737 15.645 143.417 15.92 143.157 16.26C142.907 16.59 142.717 16.97 142.587 17.4C142.457 17.82 142.392 18.24 142.392 18.66C142.392 19.13 142.467 19.585 142.617 20.025C142.767 20.455 142.977 20.835 143.247 21.165C143.527 21.495 143.857 21.76 144.237 21.96C144.627 22.16 145.052 22.26 145.512 22.26C145.752 22.26 146.002 22.23 146.262 22.17C146.522 22.11 146.767 22.015 146.997 21.885C147.237 21.755 147.457 21.59 147.657 21.39C147.857 21.18 148.017 20.93 148.137 20.64L149.832 21.615C149.662 22.015 149.417 22.37 149.097 22.68C148.787 22.98 148.432 23.235 148.032 23.445C147.642 23.655 147.222 23.815 146.772 23.925C146.322 24.035 145.882 24.09 145.452 24.09C144.692 24.09 143.997 23.93 143.367 23.61C142.737 23.29 142.192 22.875 141.732 22.365C141.282 21.845 140.927 21.26 140.667 20.61C140.417 19.95 140.292 19.28 140.292 18.6ZM154.655 24.15C154.015 24.15 153.44 24.04 152.93 23.82C152.42 23.6 151.985 23.305 151.625 22.935C151.275 22.555 151.005 22.12 150.815 21.63C150.625 21.14 150.53 20.625 150.53 20.085C150.53 19.535 150.625 19.015 150.815 18.525C151.005 18.035 151.275 17.605 151.625 17.235C151.985 16.855 152.42 16.555 152.93 16.335C153.44 16.115 154.015 16.005 154.655 16.005C155.295 16.005 155.865 16.115 156.365 16.335C156.875 16.555 157.305 16.855 157.655 17.235C158.015 17.605 158.29 18.035 158.48 18.525C158.67 19.015 158.765 19.535 158.765 20.085C158.765 20.625 158.67 21.14 158.48 21.63C158.29 22.12 158.02 22.555 157.67 22.935C157.32 23.305 156.89 23.6 156.38 23.82C155.87 24.04 155.295 24.15 154.655 24.15ZM152.6 20.085C152.6 20.435 152.65 20.755 152.75 21.045C152.86 21.325 153.005 21.57 153.185 21.78C153.375 21.99 153.595 22.155 153.845 22.275C154.095 22.385 154.365 22.44 154.655 22.44C154.945 22.44 155.215 22.385 155.465 22.275C155.715 22.155 155.93 21.99 156.11 21.78C156.3 21.57 156.445 21.32 156.545 21.03C156.655 20.74 156.71 20.42 156.71 20.07C156.71 19.73 156.655 19.415 156.545 19.125C156.445 18.835 156.3 18.585 156.11 18.375C155.93 18.165 155.715 18.005 155.465 17.895C155.215 17.775 154.945 17.715 154.655 17.715C154.365 17.715 154.095 17.775 153.845 17.895C153.595 18.015 153.375 18.18 153.185 18.39C153.005 18.6 152.86 18.85 152.75 19.14C152.65 19.43 152.6 19.745 152.6 20.085ZM167.427 24H165.417V19.59C165.417 18.96 165.307 18.5 165.087 18.21C164.867 17.92 164.562 17.775 164.172 17.775C163.972 17.775 163.767 17.815 163.557 17.895C163.347 17.975 163.147 18.09 162.957 18.24C162.777 18.38 162.612 18.55 162.462 18.75C162.312 18.95 162.202 19.17 162.132 19.41V24H160.122V16.14H161.937V17.595C162.227 17.095 162.647 16.705 163.197 16.425C163.747 16.145 164.367 16.005 165.057 16.005C165.547 16.005 165.947 16.095 166.257 16.275C166.567 16.455 166.807 16.69 166.977 16.98C167.147 17.27 167.262 17.6 167.322 17.97C167.392 18.34 167.427 18.715 167.427 19.095V24ZM169.582 24V18.09H168.547V16.56H169.582V16.08C169.582 15.1 169.817 14.325 170.287 13.755C170.757 13.185 171.397 12.9 172.207 12.9C172.847 12.9 173.492 13.055 174.142 13.365L173.737 14.88C173.587 14.8 173.407 14.735 173.197 14.685C172.997 14.625 172.812 14.595 172.642 14.595C171.942 14.595 171.592 15.065 171.592 16.005V16.56H173.512V18.09H171.592V24H169.582ZM177.903 24.15C177.273 24.15 176.703 24.045 176.193 23.835C175.683 23.615 175.248 23.32 174.888 22.95C174.528 22.58 174.248 22.15 174.048 21.66C173.858 21.17 173.763 20.655 173.763 20.115C173.763 19.555 173.858 19.03 174.048 18.54C174.238 18.04 174.513 17.605 174.873 17.235C175.233 16.855 175.668 16.555 176.178 16.335C176.698 16.115 177.278 16.005 177.918 16.005C178.558 16.005 179.128 16.115 179.628 16.335C180.138 16.555 180.568 16.85 180.918 17.22C181.278 17.59 181.548 18.02 181.728 18.51C181.918 19 182.013 19.51 182.013 20.04C182.013 20.17 182.008 20.295 181.998 20.415C181.998 20.535 181.988 20.635 181.968 20.715H175.893C175.923 21.025 175.998 21.3 176.118 21.54C176.238 21.78 176.393 21.985 176.583 22.155C176.773 22.325 176.988 22.455 177.228 22.545C177.468 22.635 177.718 22.68 177.978 22.68C178.378 22.68 178.753 22.585 179.103 22.395C179.463 22.195 179.708 21.935 179.838 21.615L181.563 22.095C181.273 22.695 180.808 23.19 180.168 23.58C179.538 23.96 178.783 24.15 177.903 24.15ZM179.943 19.41C179.893 18.82 179.673 18.35 179.283 18C178.903 17.64 178.438 17.46 177.888 17.46C177.618 17.46 177.363 17.51 177.123 17.61C176.893 17.7 176.688 17.83 176.508 18C176.328 18.17 176.178 18.375 176.058 18.615C175.948 18.855 175.883 19.12 175.863 19.41H179.943ZM187.917 17.88C187.307 17.89 186.762 18.01 186.282 18.24C185.802 18.46 185.457 18.795 185.247 19.245V24H183.237V16.14H185.082V17.82C185.222 17.55 185.387 17.31 185.577 17.1C185.767 16.88 185.972 16.69 186.192 16.53C186.412 16.37 186.632 16.25 186.852 16.17C187.082 16.08 187.302 16.035 187.512 16.035C187.622 16.035 187.702 16.035 187.752 16.035C187.812 16.035 187.867 16.04 187.917 16.05V17.88ZM192.288 24.15C191.658 24.15 191.088 24.045 190.578 23.835C190.068 23.615 189.633 23.32 189.273 22.95C188.913 22.58 188.633 22.15 188.433 21.66C188.243 21.17 188.148 20.655 188.148 20.115C188.148 19.555 188.243 19.03 188.433 18.54C188.623 18.04 188.898 17.605 189.258 17.235C189.618 16.855 190.053 16.555 190.563 16.335C191.083 16.115 191.663 16.005 192.303 16.005C192.943 16.005 193.513 16.115 194.013 16.335C194.523 16.555 194.953 16.85 195.303 17.22C195.663 17.59 195.933 18.02 196.113 18.51C196.303 19 196.398 19.51 196.398 20.04C196.398 20.17 196.393 20.295 196.383 20.415C196.383 20.535 196.373 20.635 196.353 20.715H190.278C190.308 21.025 190.383 21.3 190.503 21.54C190.623 21.78 190.778 21.985 190.968 22.155C191.158 22.325 191.373 22.455 191.613 22.545C191.853 22.635 192.103 22.68 192.363 22.68C192.763 22.68 193.138 22.585 193.488 22.395C193.848 22.195 194.093 21.935 194.223 21.615L195.948 22.095C195.658 22.695 195.193 23.19 194.553 23.58C193.923 23.96 193.168 24.15 192.288 24.15ZM194.328 19.41C194.278 18.82 194.058 18.35 193.668 18C193.288 17.64 192.823 17.46 192.273 17.46C192.003 17.46 191.748 17.51 191.508 17.61C191.278 17.7 191.073 17.83 190.893 18C190.713 18.17 190.563 18.375 190.443 18.615C190.333 18.855 190.268 19.12 190.248 19.41H194.328ZM204.927 24H202.917V19.59C202.917 18.96 202.807 18.5 202.587 18.21C202.367 17.92 202.062 17.775 201.672 17.775C201.472 17.775 201.267 17.815 201.057 17.895C200.847 17.975 200.647 18.09 200.457 18.24C200.277 18.38 200.112 18.55 199.962 18.75C199.812 18.95 199.702 19.17 199.632 19.41V24H197.622V16.14H199.437V17.595C199.727 17.095 200.147 16.705 200.697 16.425C201.247 16.145 201.867 16.005 202.557 16.005C203.047 16.005 203.447 16.095 203.757 16.275C204.067 16.455 204.307 16.69 204.477 16.98C204.647 17.27 204.762 17.6 204.822 17.97C204.892 18.34 204.927 18.715 204.927 19.095V24ZM206.18 20.07C206.18 19.52 206.275 19 206.465 18.51C206.655 18.02 206.93 17.59 207.29 17.22C207.65 16.85 208.085 16.555 208.595 16.335C209.105 16.115 209.68 16.005 210.32 16.005C211.18 16.005 211.91 16.19 212.51 16.56C213.12 16.93 213.575 17.415 213.875 18.015L211.91 18.615C211.74 18.325 211.515 18.105 211.235 17.955C210.955 17.795 210.645 17.715 210.305 17.715C210.015 17.715 209.745 17.775 209.495 17.895C209.245 18.005 209.025 18.165 208.835 18.375C208.655 18.575 208.51 18.82 208.4 19.11C208.3 19.4 208.25 19.72 208.25 20.07C208.25 20.42 208.305 20.74 208.415 21.03C208.525 21.32 208.67 21.57 208.85 21.78C209.04 21.99 209.26 22.155 209.51 22.275C209.76 22.385 210.025 22.44 210.305 22.44C210.665 22.44 210.995 22.35 211.295 22.17C211.605 21.99 211.82 21.77 211.94 21.51L213.905 22.11C213.635 22.71 213.19 23.2 212.57 23.58C211.95 23.96 211.205 24.15 210.335 24.15C209.695 24.15 209.12 24.04 208.61 23.82C208.1 23.6 207.665 23.305 207.305 22.935C206.945 22.555 206.665 22.12 206.465 21.63C206.275 21.13 206.18 20.61 206.18 20.07ZM218.713 24.15C218.083 24.15 217.513 24.045 217.003 23.835C216.493 23.615 216.058 23.32 215.698 22.95C215.338 22.58 215.058 22.15 214.858 21.66C214.668 21.17 214.573 20.655 214.573 20.115C214.573 19.555 214.668 19.03 214.858 18.54C215.048 18.04 215.323 17.605 215.683 17.235C216.043 16.855 216.478 16.555 216.988 16.335C217.508 16.115 218.088 16.005 218.728 16.005C219.368 16.005 219.938 16.115 220.438 16.335C220.948 16.555 221.378 16.85 221.728 17.22C222.088 17.59 222.358 18.02 222.538 18.51C222.728 19 222.823 19.51 222.823 20.04C222.823 20.17 222.818 20.295 222.808 20.415C222.808 20.535 222.798 20.635 222.778 20.715H216.703C216.733 21.025 216.808 21.3 216.928 21.54C217.048 21.78 217.203 21.985 217.393 22.155C217.583 22.325 217.798 22.455 218.038 22.545C218.278 22.635 218.528 22.68 218.788 22.68C219.188 22.68 219.563 22.585 219.913 22.395C220.273 22.195 220.518 21.935 220.648 21.615L222.373 22.095C222.083 22.695 221.618 23.19 220.978 23.58C220.348 23.96 219.593 24.15 218.713 24.15ZM220.753 19.41C220.703 18.82 220.483 18.35 220.093 18C219.713 17.64 219.248 17.46 218.698 17.46C218.428 17.46 218.173 17.51 217.933 17.61C217.703 17.7 217.498 17.83 217.318 18C217.138 18.17 216.988 18.375 216.868 18.615C216.758 18.855 216.693 19.12 216.673 19.41H220.753Z" fill="white"/>
</svg>
