<?xml version="1.0" encoding="utf-8"?>
<!-- Generator: Adobe Illustrator 19.0.0, SVG Export Plug-In . SVG Version: 6.00 Build 0)  -->
<svg version="1.1" id="Layer_1" xmlns="http://www.w3.org/2000/svg" xmlns:xlink="http://www.w3.org/1999/xlink" x="0px" y="0px"
	 viewBox="-287 378 37 37" style="enable-background:new -287 378 37 37;" xml:space="preserve">
<style type="text/css">
	.st0{fill:#FFFFFF;fill-opacity:0.23;stroke:#FFFFFF;}
	.st1{fill:#FFFFFF;}
</style>
<path class="st0" d="M-279.5,379h22c3.6,0,6.5,2.9,6.5,6.5v22c0,3.6-2.9,6.5-6.5,6.5h-22c-3.6,0-6.5-2.9-6.5-6.5v-22
	C-286,381.9-283.1,379-279.5,379z"/>
<path class="st1" d="M-269.1,388.5c-0.5,0.1-0.9,0.3-1.2,0.5c-0.8,0.6-1.2,1.3-1.3,2.3c0,0.5,0,4.6,0,5c0.1,1.3,1,2.4,2.2,2.8
	c0.3,0.1,0.3,0.1,0.9,0.1c0.5,0,0.6,0,0.9-0.1c1.3-0.4,2.1-1.4,2.2-2.8c0-0.5,0-4.6,0-5c-0.1-1.3-1-2.4-2.3-2.8
	c-0.2-0.1-0.3-0.1-0.8-0.1C-268.8,388.5-269,388.5-269.1,388.5z M-268,389.5c0.6,0.2,1.1,0.6,1.4,1.1c0.2,0.5,0.2,0.4,0.2,3.2
	s0,2.7-0.2,3.2c-0.3,0.5-0.8,1-1.4,1.1c-0.3,0.1-0.7,0.1-1,0c-0.6-0.2-1.1-0.6-1.4-1.1c-0.2-0.5-0.2-0.4-0.2-3.2s0-2.7,0.2-3.2
	c0.1-0.2,0.2-0.3,0.4-0.6c0.2-0.2,0.3-0.3,0.6-0.4c0.2-0.1,0.4-0.2,0.5-0.2s0.2,0,0.2,0C-268.6,389.5-268.1,389.5-268,389.5z"/>
<path class="st1" d="M-274,395.7c-0.2,0.1-0.3,0.2-0.3,0.6c0,0.9,0.3,1.9,0.7,2.7c0.3,0.6,0.8,1.2,1.4,1.6c0.8,0.7,1.9,1.1,2.9,1.2
	l0.2,0v0.8v0.8h-1.1c-1,0-1.1,0-1.2,0.1c-0.3,0.2-0.4,0.6-0.1,0.8l0.1,0.1h2.8h2.8l0.1-0.1c0.2-0.2,0.2-0.6-0.1-0.8
	c-0.1-0.1-0.2-0.1-1.2-0.1h-1.1v-0.8v-0.8l0.2,0c0.8-0.1,1.7-0.4,2.4-0.9c0.7-0.5,1.4-1.2,1.9-2c0.5-0.8,0.7-1.8,0.7-2.7
	c0-0.3-0.1-0.5-0.3-0.6c-0.2-0.1-0.3-0.1-0.5,0c-0.2,0.1-0.2,0.2-0.3,0.5c-0.1,1.4-0.6,2.4-1.5,3.3c-0.9,0.8-2,1.3-3.2,1.3
	c-1.2,0-2.4-0.5-3.2-1.3c-0.9-0.9-1.4-1.9-1.5-3.3c0-0.3-0.1-0.5-0.3-0.6C-273.7,395.6-273.8,395.6-274,395.7z"/>
</svg>
